# xmcd CD database file
#
# Track frame offsets:
#	150
#	40563
#	57606
#	90333
#	134375
#	169032
#	205199
#	231408
#
# Disc length: 3596 seconds
#
# Revision: 0
# Processed by: cddbd v1.4PL0 Copyright (c) Steve Scherf et al.
# Submitted via: CDex 1.51
#
DISCID=660e0a08
DTITLE=Survival Of The Fiddes - fear smile
DYEAR=2002
DGENRE=Jazz
TTITLE0=the wisp
TTITLE1=something wicked this way's been
TTITLE2=holiday
TTITLE3=lament for a llama
TTITLE4=mustard !?!
TTITLE5=old things
TTITLE6=hewn
TTITLE7=mink-oiled boots are made for walkin'
EXTD=YEAR: 2002
EXTT0=
EXTT1=
EXTT2=
EXTT3=
EXTT4=
EXTT5=
EXTT6=
EXTT7=
PLAYORDER=
